<svg width="24" height="24" viewBox="0 0 24 24" fill="none" xmlns="http://www.w3.org/2000/svg">
<path d="M10.4 1.60001C9.08405 1.60001 8.00002 2.68403 8.00002 4.00001C8.00002 4.28148 8.05918 4.54809 8.15002 4.80001H4.00002C3.11602 4.80001 2.40002 5.51601 2.40002 6.40001V8.00001H21.6V6.40001C21.6 5.51601 20.884 4.80001 20 4.80001H15.85C15.9409 4.54809 16 4.28148 16 4.00001C16 2.68403 14.916 1.60001 13.6 1.60001C12.9852 1.60001 12.4267 1.84331 12 2.22969C11.5733 1.84331 11.0149 1.60001 10.4 1.60001ZM10.4 3.20001C10.852 3.20001 11.2 3.54798 11.2 4.00001V4.80001H10.4C9.948 4.80001 9.60002 4.45203 9.60002 4.00001C9.60002 3.54798 9.948 3.20001 10.4 3.20001ZM13.6 3.20001C14.052 3.20001 14.4 3.54798 14.4 4.00001C14.4 4.45203 14.052 4.80001 13.6 4.80001H12.8V4.00001C12.8 3.54798 13.148 3.20001 13.6 3.20001ZM3.20002 9.60001V20C3.20002 20.884 3.91602 21.6 4.80002 21.6H11.2V9.60001H3.20002ZM12.8 9.60001V21.6H19.2C20.084 21.6 20.8 20.884 20.8 20V9.60001H12.8Z" fill="#30ACB2"/>
</svg>
