<svg width="24" height="24" viewBox="0 0 24 24" fill="none" xmlns="http://www.w3.org/2000/svg">
<path d="M16.4 2.39999C15.8785 2.39999 15.4388 2.73499 15.2734 3.19999H12.8C12.694 3.19849 12.5887 3.21808 12.4904 3.25761C12.392 3.29714 12.3024 3.35583 12.2269 3.43027C12.1514 3.5047 12.0915 3.5934 12.0506 3.69121C12.0097 3.78901 11.9886 3.89397 11.9886 3.99999C11.9886 4.10601 12.0097 4.21098 12.0506 4.30878C12.0915 4.40659 12.1514 4.49529 12.2269 4.56972C12.3024 4.64416 12.392 4.70285 12.4904 4.74238C12.5887 4.78191 12.694 4.80149 12.8 4.79999H15.5469C16.0158 5.91333 16.8 7.99381 16.8 9.59999C16.8 12.8 14.4 14.4 12.8 14.4H11.2C10.316 14.4 9.59999 13.684 9.59999 12.8V11.2H3.19999C3.19999 11.2 0.799988 12 0.799988 14.4C1.08754 14.4942 1.84556 14.8189 2.71092 15.2C2.03695 15.7881 1.59999 16.6423 1.59999 17.6C1.59999 19.3578 3.04215 20.8 4.79999 20.8C6.55782 20.8 7.99999 19.3578 7.99999 17.6C7.99999 17.5861 7.99548 17.5732 7.9953 17.5594C8.11158 17.5859 8.23054 17.6 8.35155 17.6H14.2062C14.843 17.6 15.4535 17.3473 15.9031 16.8969L16 16.8H16.1156C16.0481 17.0574 16 17.3224 16 17.6C16 19.3578 17.4421 20.8 19.2 20.8C20.9578 20.8 22.4 19.3578 22.4 17.6C22.4 17.2137 22.3195 16.8469 22.1922 16.5031L23.2 16C23.2 16 22.0889 13.723 19.7859 13.0141L20 12.8C19.9526 9.83586 18.2606 6.34517 17.339 4.79999H18.4V2.39999H16.4ZM3.19999 7.99999C3.09398 7.99849 2.98873 8.01808 2.89035 8.05761C2.79198 8.09714 2.70244 8.15583 2.62695 8.23027C2.55145 8.3047 2.4915 8.3934 2.45058 8.4912C2.40966 8.58901 2.38859 8.69397 2.38859 8.79999C2.38859 8.90601 2.40966 9.01098 2.45058 9.10878C2.4915 9.20659 2.55145 9.29529 2.62695 9.36972C2.70244 9.44416 2.79198 9.50285 2.89035 9.54238C2.98873 9.58191 3.09398 9.60149 3.19999 9.59999H9.59999C9.706 9.60149 9.81125 9.58191 9.90962 9.54238C10.008 9.50285 10.0975 9.44416 10.173 9.36972C10.2485 9.29529 10.3085 9.20659 10.3494 9.10878C10.3903 9.01098 10.4114 8.90601 10.4114 8.79999C10.4114 8.69397 10.3903 8.58901 10.3494 8.4912C10.3085 8.3934 10.2485 8.3047 10.173 8.23027C10.0975 8.15583 10.008 8.09714 9.90962 8.05761C9.81125 8.01808 9.706 7.99849 9.59999 7.99999H3.19999ZM4.55467 16.025C5.20208 16.3181 5.62048 16.5092 6.15936 16.7562C6.31004 17.0008 6.39999 17.2876 6.39999 17.6C6.39999 18.4931 5.69312 19.2 4.79999 19.2C3.90686 19.2 3.19999 18.4931 3.19999 17.6C3.19999 16.7911 3.78185 16.1416 4.55467 16.025ZM17.8172 16.8H20.5828C20.7178 17.0353 20.8 17.3056 20.8 17.6C20.8 18.4931 20.0931 19.2 19.2 19.2C18.3069 19.2 17.6 18.4931 17.6 17.6C17.6 17.3056 17.6822 17.0353 17.8172 16.8Z" fill="#F89E1C"/>
</svg>
