<svg xmlns="http://www.w3.org/2000/svg" width="24" height="24" viewBox="0 0 24 24" fill="none">
<path d="M10.6331 6.67627C11.6443 6.67627 12.464 5.85331 12.464 4.83813C12.464 3.82296 11.6443 3 10.6331 3C9.62196 3 8.80225 3.82296 8.80225 4.83813C8.80225 5.85331 9.62196 6.67627 10.6331 6.67627Z" fill="#494948"/>
<path d="M8.19965 21C7.07811 21 6.16626 20.0845 6.16626 18.9586C6.16626 17.8326 7.07811 16.9171 8.19965 16.9171C9.32119 16.9171 10.233 17.8326 10.233 18.9586C10.233 20.0845 9.32119 21 8.19965 21ZM8.19965 17.8735C7.60413 17.8735 7.11885 18.3595 7.11885 18.9586C7.11885 19.5564 7.60294 20.0436 8.19965 20.0436C8.79637 20.0436 9.28046 19.5576 9.28046 18.9586C9.27926 18.3607 8.79517 17.8735 8.19965 17.8735Z" fill="#494948"/>
<path d="M20.0466 21C18.925 21 18.0132 20.0845 18.0132 18.9586C18.0132 17.8326 18.925 16.9171 20.0466 16.9171C21.1681 16.9171 22.08 17.8326 22.08 18.9586C22.0812 20.0845 21.1681 21 20.0466 21ZM20.0466 17.8735C19.4511 17.8735 18.9658 18.3595 18.9658 18.9586C18.9658 19.5564 19.4499 20.0436 20.0466 20.0436C20.6433 20.0436 21.1274 19.5576 21.1274 18.9586C21.1274 18.3607 20.6421 17.8735 20.0466 17.8735Z" fill="#494948"/>
<path d="M11.242 8.30869L12.0664 9.37212C12.1383 9.46475 12.2401 9.5273 12.354 9.55016L14.1777 9.91826C14.518 10.0121 14.6989 10.3682 14.5982 10.6593C14.5132 10.9059 14.2388 11.0707 13.95 11.0226C13.2598 10.8842 12.5696 10.7471 11.8807 10.6088C11.6913 10.5715 11.5212 10.4692 11.3978 10.3189L10.7387 9.51768L10.3937 12.4168L13.2191 12.7801C13.3425 12.7994 13.6385 12.8643 13.9021 13.1097C14.071 13.2685 14.1609 13.4393 14.2064 13.5476L15.564 16.4756C15.5964 16.5466 15.6251 16.6212 15.6383 16.6982C15.7102 17.1144 15.4849 17.5318 15.1015 17.6834C14.7528 17.8218 14.3442 17.7099 14.0998 17.4128C14.0506 17.3538 14.0135 17.2864 13.9811 17.2167L12.7098 14.4763L9.66872 14.0625C9.56687 14.0481 9.17625 13.9795 8.88149 13.6306C8.50764 13.1891 8.59152 12.6574 8.6035 12.5816C8.80001 11.0106 8.99771 9.43828 9.19422 7.8672C9.2769 7.34512 9.7526 7.00708 10.1971 7.08046C10.4655 7.12497 10.6992 7.31625 10.8214 7.5797C10.9376 7.83954 11.0706 8.08735 11.242 8.30869Z" fill="#494948"/>
<path d="M16.6927 12.6598C16.4351 12.2773 16.0061 12.0487 15.5472 12.0487C15.2237 12.0571 14.9613 11.7877 14.9697 11.4761C14.978 11.1766 15.2369 10.9288 15.5472 10.9372H16.5309C16.5465 10.9372 16.5621 10.9384 16.5777 10.9408C16.6747 10.9576 16.912 11.0154 17.0821 11.2271C17.16 11.3233 17.1984 11.422 17.2199 11.4929L17.3062 11.8189C17.4799 12.4782 17.837 13.0724 18.3307 13.5404C18.5128 13.7136 18.7009 13.9278 18.8699 14.1924C19.1515 14.6327 19.2833 15.0561 19.348 15.3629C19.3708 15.47 19.4546 15.5494 19.5613 15.5698C19.7206 15.5999 19.9387 15.666 20.158 15.8188C20.4755 16.0402 20.6217 16.3229 20.6768 16.448C20.4539 16.3914 20.0489 16.318 19.5673 16.4215C18.5823 16.6308 18.0791 17.4007 17.9832 17.5535C17.6429 18.0984 17.589 18.6458 17.5962 18.985C17.5998 19.1366 17.4775 19.2605 17.3254 19.2605C16.1775 19.2605 11.9645 19.2605 10.8262 19.2605C10.674 19.2605 10.5566 19.1342 10.5566 18.9814C10.5578 17.6004 9.48537 16.4841 8.29073 16.4299C7.34413 16.3866 6.42389 17.0146 6.01649 17.9481C5.93981 18.1249 5.88109 18.3126 5.84395 18.5087C5.79842 18.748 4.96205 17.0085 5.17654 16.3674C5.18373 16.3421 5.2029 16.2639 5.16815 16.1737C5.131 16.075 4.6589 15.2751 4.75476 14.9022C4.76554 14.8745 4.78352 14.8408 4.81347 14.8083C4.90813 14.7109 5.04353 14.7205 5.0675 14.7217H10.7483C10.7675 14.7217 10.7878 14.7229 10.807 14.7277C10.9244 14.753 11.1701 14.8276 11.3762 15.0477C11.5056 15.1861 11.5727 15.3304 11.6086 15.4315C11.6182 15.4591 11.6242 15.488 11.6242 15.5169L11.6302 15.7563C11.6314 15.8152 11.617 15.8742 11.5811 15.9211C11.5751 15.9283 11.5679 15.9367 11.5607 15.9439C11.4924 16.0125 11.5775 17.4464 11.7416 17.9529C11.7776 18.0648 11.8818 18.1405 11.9981 18.1405L16.0756 18.1526C16.1511 18.1526 16.2218 18.1225 16.2733 18.0672C16.5933 17.7243 17.4093 16.7246 17.4536 15.2233C17.4859 14.0902 17.063 13.2084 16.6927 12.6598Z" fill="#494948"/>
<path d="M17.2344 10.9372C17.4728 10.5113 17.8167 10.3153 18.0264 10.4007C18.0504 10.4103 18.0899 10.4307 18.1319 10.4789C18.1882 10.5438 18.2145 10.6292 18.2145 10.7146V12.3014C18.2205 12.418 18.1522 12.5251 18.0492 12.5624C17.9629 12.5937 17.8646 12.572 17.7939 12.5083C17.7748 12.2677 17.7221 11.9369 17.5747 11.5687C17.4704 11.3077 17.3458 11.0972 17.2344 10.9372Z" fill="#494948"/>
<path d="M6.78334 13.0977L2.91905 12.6033C2.29238 12.5227 1.84903 11.9477 1.92931 11.3185L2.42178 7.43895C2.50207 6.80979 3.07482 6.3647 3.70149 6.4453L7.56578 6.93971C8.19246 7.02031 8.6358 7.59533 8.55552 8.22448L8.06305 12.1041C7.98277 12.7332 7.41001 13.1771 6.78334 13.0977Z" fill="#494948"/>
</svg>